<svg xmlns="http://www.w3.org/2000/svg" width="1280" height="250" viewBox="0 0 1280 250" role="img" aria-labelledby="title desc">
  <title id="title">Contact Manohar Eldhandi</title>
  <desc id="desc">Manohar Eldhandi is open to software engineering roles in backend development, AI systems, and machine learning.</desc>
  <defs>
    <linearGradient id="case" x1="0" y1="0" x2="0" y2="1"><stop stop-color="#30363d"/><stop offset="1" stop-color="#161b22"/></linearGradient>
    <linearGradient id="board" x1="0" y1="0" x2="1" y2="1"><stop stop-color="#161b22"/><stop offset="1" stop-color="#0d1117"/></linearGradient>
    <filter id="shadow" x="-10%" y="-20%" width="120%" height="150%"><feDropShadow dx="0" dy="10" stdDeviation="10" flood-color="#010409" flood-opacity="0.55"/></filter>
  </defs>
  <rect x="24" y="18" width="1232" height="210" rx="28" fill="url(#case)" stroke="#484f58" stroke-width="2" filter="url(#shadow)"/>
  <rect x="42" y="36" width="1196" height="174" rx="18" fill="url(#board)" stroke="#30363d" stroke-width="2"/>
  <circle cx="61" cy="55" r="4" fill="#6e7681"/><circle cx="1219" cy="55" r="4" fill="#6e7681"/><circle cx="61" cy="191" r="4" fill="#6e7681"/><circle cx="1219" cy="191" r="4" fill="#6e7681"/>
  <g font-family="Avenir Next, -apple-system, BlinkMacSystemFont, Segoe UI, sans-serif">
    <text x="78" y="84" fill="#58a6ff" font-size="15" font-weight="780" letter-spacing="2.4">CONTACT</text>
    <text x="76" y="139" fill="#f0f6fc" font-size="46" font-weight="800">Open to software engineering roles.</text>
    <text x="78" y="177" fill="#b1bac4" font-size="20">Backend development · AI systems · machine learning</text>
    <g transform="translate(978 73)">
      <rect width="198" height="98" rx="14" fill="#161b22" stroke="#484f58" stroke-width="1.5"/>
      <rect width="6" height="98" rx="3" fill="#3fb950"/>
      <circle cx="32" cy="33" r="8" fill="#3fb950"/><circle cx="32" cy="33" r="3" fill="#aff5b4"/>
      <text x="52" y="40" fill="#f0f6fc" font-size="14" font-weight="780" letter-spacing="1.2">AVAILABLE</text>
      <text x="26" y="72" fill="#8b949e" font-size="13" font-weight="700">BENGALURU · INDIA</text>
    </g>
  </g>
</svg>
