<svg xmlns="http://www.w3.org/2000/svg" width="1280" height="500" viewBox="0 0 1280 500" role="img" aria-labelledby="title desc">
  <title id="title">Experience and education timeline</title>
  <desc id="desc">Software Engineer Trainee at Cisco Systems, DSA Mentor at Smart Interviews, and B.Tech in Computer Science and Engineering with AI and ML.</desc>
  <defs>
    <linearGradient id="case" x1="0" y1="0" x2="0" y2="1"><stop stop-color="#30363d"/><stop offset="1" stop-color="#161b22"/></linearGradient>
    <linearGradient id="board" x1="0" y1="0" x2="1" y2="1"><stop stop-color="#161b22"/><stop offset="1" stop-color="#0d1117"/></linearGradient>
    <linearGradient id="card" x1="0" y1="0" x2="0" y2="1"><stop stop-color="#21262d"/><stop offset="1" stop-color="#161b22"/></linearGradient>
    <filter id="shadow" x="-10%" y="-10%" width="120%" height="130%"><feDropShadow dx="0" dy="10" stdDeviation="10" flood-color="#010409" flood-opacity="0.55"/></filter>
  </defs>
  <rect x="24" y="18" width="1232" height="464" rx="28" fill="url(#case)" stroke="#484f58" stroke-width="2" filter="url(#shadow)"/>
  <rect x="44" y="38" width="1192" height="424" rx="18" fill="url(#board)" stroke="#30363d" stroke-width="2"/>
  <circle cx="63" cy="57" r="4" fill="#6e7681"/><circle cx="1217" cy="57" r="4" fill="#6e7681"/><circle cx="63" cy="443" r="4" fill="#6e7681"/><circle cx="1217" cy="443" r="4" fill="#6e7681"/>
  <g font-family="Avenir Next, -apple-system, BlinkMacSystemFont, Segoe UI, sans-serif">
    <line x1="305" y1="95" x2="305" y2="400" stroke="#30363d" stroke-width="5" stroke-linecap="round"/>
    <g>
      <rect x="76" y="65" width="190" height="62" rx="12" fill="#161b22" stroke="#30363d"/>
      <text x="171" y="91" text-anchor="middle" fill="#c9d1d9" font-size="14" font-weight="780" letter-spacing="1.1">OCT 2025 — PRESENT</text>
      <text x="171" y="114" text-anchor="middle" fill="#58a6ff" font-size="13" font-weight="750">BENGALURU</text>
      <circle cx="305" cy="96" r="13" fill="#1f6feb" stroke="#79c0ff" stroke-width="5"/>
      <rect x="340" y="61" width="836" height="103" rx="14" fill="url(#card)" stroke="#30363d"/>
      <rect x="340" y="61" width="8" height="103" rx="4" fill="#58a6ff"/>
      <text x="372" y="99" fill="#f0f6fc" font-size="29" font-weight="800">Software Engineer Trainee · Cisco Systems</text>
      <text x="372" y="129" fill="#b1bac4" font-size="18">Internal AI security-compliance tooling for four product teams and 50+ engineers.</text>
      <text x="372" y="153" fill="#8b949e" font-size="18">Backend services, MCP/RAG workflows, audit logging, validation, and release automation.</text>
    </g>
    <g>
      <rect x="76" y="204" width="190" height="62" rx="12" fill="#161b22" stroke="#30363d"/>
      <text x="171" y="231" text-anchor="middle" fill="#c9d1d9" font-size="15" font-weight="780" letter-spacing="1.1">2024</text>
      <text x="171" y="254" text-anchor="middle" fill="#3fb950" font-size="13" font-weight="750">HYDERABAD</text>
      <circle cx="305" cy="235" r="13" fill="#238636" stroke="#56d364" stroke-width="5"/>
      <rect x="340" y="200" width="836" height="103" rx="14" fill="url(#card)" stroke="#30363d"/>
      <rect x="340" y="200" width="8" height="103" rx="4" fill="#3fb950"/>
      <text x="372" y="238" fill="#f0f6fc" font-size="29" font-weight="800">DSA Mentor · Smart Interviews</text>
      <text x="372" y="268" fill="#b1bac4" font-size="18">Mentored 150+ students in problem solving, debugging, and optimization.</text>
      <text x="372" y="292" fill="#8b949e" font-size="18">Contributed to a 40% average improvement in practice-assessment performance.</text>
    </g>
    <g>
      <rect x="76" y="343" width="190" height="62" rx="12" fill="#161b22" stroke="#30363d"/>
      <text x="171" y="369" text-anchor="middle" fill="#c9d1d9" font-size="14" font-weight="780" letter-spacing="1">DEC 2021 — JUL 2025</text>
      <text x="171" y="392" text-anchor="middle" fill="#58a6ff" font-size="13" font-weight="750">HYDERABAD</text>
      <circle cx="305" cy="374" r="13" fill="#1f6feb" stroke="#79c0ff" stroke-width="5"/>
      <rect x="340" y="339" width="836" height="103" rx="14" fill="url(#card)" stroke="#30363d"/>
      <rect x="340" y="339" width="8" height="103" rx="4" fill="#58a6ff"/>
      <text x="372" y="377" fill="#f0f6fc" font-size="29" font-weight="800">B.Tech, Computer Science &amp; Engineering · AI &amp; ML</text>
      <text x="372" y="407" fill="#b1bac4" font-size="18">CMR Institute of Technology · JNTU Hyderabad</text>
      <text x="372" y="431" fill="#58a6ff" font-size="18" font-weight="800">CGPA 8.48 / 10</text>
    </g>
  </g>
</svg>
