<svg xmlns="http://www.w3.org/2000/svg" width="1280" height="340" viewBox="0 0 1280 340" role="img" aria-labelledby="title desc">
  <title id="title">Manohar Eldhandi - Software Engineer focused on backend development and AI systems</title>
  <desc id="desc">A tactile nameplate showing Manohar's Cisco role, Bengaluru location, and interests in AI systems, backend development, and machine learning.</desc>
  <defs>
    <linearGradient id="metal" x1="0" y1="0" x2="0" y2="1">
      <stop offset="0" stop-color="#f4efe5"/>
      <stop offset="0.48" stop-color="#d9d1c4"/>
      <stop offset="1" stop-color="#aaa397"/>
    </linearGradient>
    <linearGradient id="plate" x1="0" y1="0" x2="1" y2="1">
      <stop offset="0" stop-color="#16253a"/>
      <stop offset="0.58" stop-color="#0d1829"/>
      <stop offset="1" stop-color="#09111e"/>
    </linearGradient>
    <radialGradient id="screw" cx="35%" cy="30%" r="70%">
      <stop offset="0" stop-color="#ffffff"/>
      <stop offset="0.35" stop-color="#c8c3ba"/>
      <stop offset="1" stop-color="#6d6a65"/>
    </radialGradient>
    <filter id="shadow" x="-10%" y="-15%" width="120%" height="140%">
      <feDropShadow dx="0" dy="12" stdDeviation="12" flood-color="#050a12" flood-opacity="0.34"/>
    </filter>
  </defs>

  <g filter="url(#shadow)">
    <rect x="24" y="18" width="1232" height="302" rx="34" fill="url(#metal)" stroke="#7e786f" stroke-width="2"/>
    <path d="M58 35H1222" stroke="#ffffff" stroke-opacity="0.68" stroke-width="2"/>
    <rect x="41" y="36" width="1198" height="266" rx="24" fill="url(#plate)" stroke="#050b14" stroke-width="3"/>
    <rect x="49" y="44" width="1182" height="250" rx="18" fill="none" stroke="#31445f" stroke-width="1"/>
  </g>

  <g fill="url(#screw)" stroke="#45433f" stroke-width="1.5">
    <circle cx="56" cy="51" r="9"/><circle cx="1224" cy="51" r="9"/>
    <circle cx="56" cy="287" r="9"/><circle cx="1224" cy="287" r="9"/>
  </g>
  <g stroke="#55514b" stroke-width="1.6" stroke-linecap="round">
    <path d="M51 51h10M56 46v10"/><path d="M1219 51h10M1224 46v10"/>
    <path d="M51 287h10M56 282v10"/><path d="M1219 287h10M1224 282v10"/>
  </g>

  <g font-family="Inter, Segoe UI, Arial, sans-serif">
    <text x="78" y="126" fill="#fffaf0" font-size="61" font-weight="760" letter-spacing="-1.4">MANOHAR ELDHANDI</text>
    <text x="81" y="168" fill="#aec4df" font-size="25" font-weight="500" letter-spacing="0.6">Software Engineer · Backend Development &amp; AI Systems</text>

    <g transform="translate(887 57)">
      <rect width="305" height="156" rx="16" fill="#0a1220" stroke="#31445f" stroke-width="2"/>
      <rect x="17" y="17" width="271" height="122" rx="10" fill="#111d2f" stroke="#050a11"/>
      <text x="34" y="45" fill="#7e91aa" font-size="13" font-weight="700" letter-spacing="2.2">CURRENT ROLE</text>
      <text x="34" y="78" fill="#fffaf0" font-size="27" font-weight="750">CISCO</text>
      <text x="34" y="103" fill="#bdcadd" font-size="16">Software Engineer Trainee</text>
      <circle cx="37" cy="125" r="6" fill="#55d187"/>
      <circle cx="37" cy="125" r="2.5" fill="#c8ffdc"/>
      <text x="52" y="131" fill="#8fa2ba" font-size="13" font-weight="650" letter-spacing="1.3">BENGALURU · INDIA</text>
    </g>

    <g transform="translate(79 229)">
      <g>
        <rect width="184" height="35" rx="8" fill="#101b2b" stroke="#3a4c63"/>
        <circle cx="20" cy="17.5" r="5" fill="#f5b942"/>
        <text x="35" y="23" fill="#dfe9f5" font-size="13" font-weight="700" letter-spacing="1.1">AI SYSTEMS</text>
      </g>
      <g transform="translate(196)">
        <rect width="240" height="35" rx="8" fill="#101b2b" stroke="#3a4c63"/>
        <circle cx="20" cy="17.5" r="5" fill="#5aa8ff"/>
        <text x="35" y="23" fill="#dfe9f5" font-size="13" font-weight="700" letter-spacing="1.1">BACKEND DEVELOPMENT</text>
      </g>
      <g transform="translate(448)">
        <rect width="296" height="35" rx="8" fill="#101b2b" stroke="#3a4c63"/>
        <circle cx="20" cy="17.5" r="5" fill="#55d187"/>
        <text x="35" y="23" fill="#dfe9f5" font-size="13" font-weight="700" letter-spacing="1.1">MACHINE LEARNING ENTHUSIAST</text>
      </g>
    </g>
  </g>
</svg>
