<svg xmlns="http://www.w3.org/2000/svg" width="1280" height="350" viewBox="0 0 1280 350" role="img" aria-labelledby="title desc">
  <title id="title">Manohar Eldhandi - Software Engineer focused on backend development and AI systems</title>
  <desc id="desc">A clean dark navy nameplate with gold edging showing Manohar's role, location, and engineering interests.</desc>
  <defs>
    <linearGradient id="plate" x1="0" y1="0" x2="1" y2="1"><stop stop-color="#17263b"/><stop offset="0.58" stop-color="#0d1828"/><stop offset="1" stop-color="#080f1b"/></linearGradient>
    <linearGradient id="edge" x1="0" y1="0" x2="0" y2="1"><stop stop-color="#f0d79b"/><stop offset="0.48" stop-color="#c29a4f"/><stop offset="1" stop-color="#6f542b"/></linearGradient>
    <filter id="shadow" x="-10%" y="-20%" width="120%" height="160%"><feDropShadow dx="0" dy="10" stdDeviation="10" flood-color="#03070d" flood-opacity="0.48"/></filter>
  </defs>
  <path d="M24 350V52Q24 18 58 18H1222Q1256 18 1256 52V350Z" fill="#0a111d" filter="url(#shadow)"/>
  <path d="M24 350V52Q24 18 58 18H1222Q1256 18 1256 52V350" fill="none" stroke="url(#edge)" stroke-width="4"/>
  <path d="M40 350V56Q40 34 62 34H1218Q1240 34 1240 56V350Z" fill="url(#plate)"/>
  <path d="M40 350V56Q40 34 62 34H1218Q1240 34 1240 56V350" fill="none" stroke="#718096" stroke-width="2"/>
  <path d="M66 51H1214" stroke="#d6b56d" stroke-width="2" stroke-opacity="0.75"/>
  <g fill="#d6b56d" stroke="#5e4725" stroke-width="1.5"><circle cx="58" cy="50" r="7"/><circle cx="1222" cy="50" r="7"/></g>

  <g text-rendering="geometricPrecision">
    <text x="78" y="127" fill="#fffaf0" font-family="Georgia, Times New Roman, serif" font-size="65" font-weight="700" letter-spacing="-1">MANOHAR ELDHANDI</text>
    <text x="81" y="174" fill="#bdd0e8" font-family="Trebuchet MS, Verdana, sans-serif" font-size="28" font-weight="700">Software Engineer · Backend Development &amp; AI Systems</text>

    <rect x="887" y="62" width="305" height="156" rx="15" fill="#0a1220" stroke="#d6b56d" stroke-width="2"/>
    <rect x="901" y="76" width="277" height="128" rx="9" fill="#111d2f" stroke="#34465e"/>
    <text x="922" y="106" fill="#d6b56d" font-family="Trebuchet MS, Verdana, sans-serif" font-size="15" font-weight="700" letter-spacing="1.8">CURRENT ROLE</text>
    <text x="922" y="143" fill="#fffaf0" font-family="Georgia, Times New Roman, serif" font-size="31" font-weight="700">Cisco</text>
    <text x="922" y="174" fill="#d8e3f0" font-family="Trebuchet MS, Verdana, sans-serif" font-size="18" font-weight="700">Software Engineer Trainee</text>
    <circle cx="926" cy="192" r="7" fill="#55d187"/>
    <text x="944" y="198" fill="#9fb2ca" font-family="Trebuchet MS, Verdana, sans-serif" font-size="14" font-weight="700">BENGALURU · INDIA</text>

    <g font-family="Trebuchet MS, Verdana, sans-serif" font-size="15" font-weight="700" letter-spacing="0.7">
      <rect x="79" y="232" width="190" height="44" rx="9" fill="#101b2b" stroke="#8f713d" stroke-width="1.5"/>
      <circle cx="102" cy="254" r="6" fill="#d6b56d"/><text x="120" y="260" fill="#f4ead5">AI SYSTEMS</text>
      <rect x="282" y="232" width="262" height="44" rx="9" fill="#101b2b" stroke="#8f713d" stroke-width="1.5"/>
      <circle cx="305" cy="254" r="6" fill="#75b5ff"/><text x="323" y="260" fill="#f4ead5">BACKEND DEVELOPMENT</text>
      <rect x="557" y="232" width="324" height="44" rx="9" fill="#101b2b" stroke="#8f713d" stroke-width="1.5"/>
      <circle cx="580" cy="254" r="6" fill="#55d187"/><text x="598" y="260" fill="#f4ead5">MACHINE LEARNING ENTHUSIAST</text>
    </g>
  </g>
</svg>
