<svg xmlns="http://www.w3.org/2000/svg" width="1280" height="316" viewBox="0 0 1280 316" role="img" aria-labelledby="title desc">
  <title id="title">Carivyo-AI - Local-First Job Search and Application Platform</title>
  <desc id="desc">A dark project panel showing a privacy-conscious pipeline from job discovery through scoring and materials to a human-reviewed application dry run.</desc>
  <defs>
    <linearGradient id="case" x1="0" y1="0" x2="0" y2="1"><stop stop-color="#30363d"/><stop offset="1" stop-color="#161b22"/></linearGradient>
    <linearGradient id="board" x1="0" y1="0" x2="1" y2="1"><stop stop-color="#161b22"/><stop offset="1" stop-color="#0d1117"/></linearGradient>
    <linearGradient id="screen" x1="0" y1="0" x2="0" y2="1"><stop stop-color="#21262d"/><stop offset="1" stop-color="#0d1117"/></linearGradient>
    <filter id="shadow" x="-10%" y="-20%" width="120%" height="160%"><feDropShadow dx="0" dy="10" stdDeviation="10" flood-color="#010409" flood-opacity="0.55"/></filter>
    <filter id="small" x="-10%" y="-20%" width="120%" height="150%"><feDropShadow dx="0" dy="5" stdDeviation="5" flood-color="#010409" flood-opacity="0.48"/></filter>
  </defs>
  <rect x="24" y="18" width="1232" height="276" rx="28" fill="url(#case)" stroke="#484f58" stroke-width="2" filter="url(#shadow)"/>
  <rect x="42" y="36" width="1196" height="240" rx="18" fill="url(#board)" stroke="#30363d" stroke-width="2"/>
  <g font-family="Avenir Next, -apple-system, BlinkMacSystemFont, Segoe UI, sans-serif">
    <rect x="71" y="62" width="232" height="40" rx="8" fill="#1f6feb"/>
    <text x="89" y="88" fill="#ffffff" font-size="15" font-weight="800" letter-spacing="1.3">02 · LOCAL-FIRST AI</text>
    <text x="71" y="159" fill="#f0f6fc" font-size="52" font-weight="800">Carivyo-AI</text>
    <text x="72" y="199" fill="#b1bac4" font-size="22" font-weight="600">Evidence-grounded job discovery and application assistance.</text>
    <text x="72" y="243" fill="#8b949e" font-size="17" font-weight="750">NODE.JS · LLM GATEWAY · PLAYWRIGHT · PYTHON · CLI</text>
    <g transform="translate(732 68)" filter="url(#small)">
      <rect width="455" height="170" rx="15" fill="url(#screen)" stroke="#484f58" stroke-width="1.5"/>
      <text x="24" y="34" fill="#8b949e" font-size="14" font-weight="780" letter-spacing="1.7">HUMAN-IN-THE-LOOP PIPELINE</text>
      <g transform="translate(23 56)"><rect width="88" height="60" rx="9" fill="#161b22" stroke="#58a6ff"/><text x="44" y="26" text-anchor="middle" fill="#f0f6fc" font-size="12" font-weight="800">DISCOVER</text><text x="44" y="46" text-anchor="middle" fill="#8b949e" font-size="11">5 ATS</text></g>
      <path d="M116 86h25" stroke="#58a6ff" stroke-width="3"/><path d="m136 80 8 6-8 6" fill="none" stroke="#58a6ff" stroke-width="3"/>
      <g transform="translate(149 56)"><rect width="88" height="60" rx="9" fill="#161b22" stroke="#58a6ff"/><text x="44" y="26" text-anchor="middle" fill="#f0f6fc" font-size="12" font-weight="800">SCORE</text><text x="44" y="46" text-anchor="middle" fill="#8b949e" font-size="11">EVIDENCE</text></g>
      <path d="M242 86h25" stroke="#58a6ff" stroke-width="3"/><path d="m262 80 8 6-8 6" fill="none" stroke="#58a6ff" stroke-width="3"/>
      <g transform="translate(275 56)"><rect width="88" height="60" rx="9" fill="#161b22" stroke="#58a6ff"/><text x="44" y="26" text-anchor="middle" fill="#f0f6fc" font-size="12" font-weight="800">PREPARE</text><text x="44" y="46" text-anchor="middle" fill="#8b949e" font-size="11">MATERIALS</text></g>
      <path d="M368 86h22" stroke="#58a6ff" stroke-width="3"/><path d="m385 80 8 6-8 6" fill="none" stroke="#58a6ff" stroke-width="3"/>
      <circle cx="416" cy="86" r="22" fill="#12261a" stroke="#3fb950" stroke-width="2"/><path d="m406 86 7 7 14-16" fill="none" stroke="#56d364" stroke-width="4" stroke-linecap="round" stroke-linejoin="round"/>
      <text x="227" y="148" text-anchor="middle" fill="#8b949e" font-size="11" font-weight="800" letter-spacing="1">STOPS BEFORE SUBMIT · PRIVATE DATA STAYS LOCAL</text>
    </g>
  </g>
</svg>
